# Blender v2.79 (sub 0) OBJ File: 'plan_voisin_building_2.blend'
# www.blender.org
mtllib plan_voisin_building_2.mtl
o Cube
v 0.500000 0.000000 -0.464286
v 0.500000 0.000000 -0.214286
v -0.500000 0.000000 -0.214286
v -0.500000 0.000000 -0.464286
v 0.500000 0.250000 -0.464286
v 0.500000 0.250000 -0.214286
v -0.500000 0.250000 -0.214286
v -0.500000 0.250000 -0.464286
v 0.750000 0.000000 -0.464286
v 0.750000 0.000000 -0.214286
v 0.750000 0.250000 -0.464286
v 0.750000 0.250000 -0.214286
v -0.750000 0.000000 -0.214286
v -0.750000 0.000000 -0.464286
v -0.750000 0.250000 -0.214286
v -0.750000 0.250000 -0.464286
v 0.500000 0.000000 -0.714286
v 0.500000 0.250000 -0.714286
v -0.500000 0.000000 -0.714286
v -0.500000 0.250000 -0.714286
v 0.750000 0.000000 -0.714286
v 0.750000 0.250000 -0.714286
v -0.750000 0.000000 -0.714286
v -0.750000 0.250000 -0.714286
v 0.500000 0.000000 -0.964286
v 0.500000 0.250000 -0.964286
v -0.500000 0.000000 -0.964286
v -0.500000 0.250000 -0.964286
v 0.750000 0.000000 -0.964286
v 0.750000 0.250000 -0.964286
v -0.750000 0.000000 -0.964286
v -0.750000 0.250000 -0.964286
v 1.250000 0.000000 -0.714286
v 1.250000 0.250000 -0.714286
v -1.250000 0.000000 -0.714286
v -1.250000 0.250000 -0.714286
v 1.250000 0.000000 -0.964286
v 1.250000 0.250000 -0.964286
v -1.250000 0.000000 -0.964286
v -1.250000 0.250000 -0.964286
v 1.500000 0.000000 -0.714286
v 1.500000 0.250000 -0.714286
v -1.500000 0.000000 -0.714286
v -1.500000 0.250000 -0.714286
v 1.500000 0.000000 -0.964286
v 1.500000 0.250000 -0.964286
v -1.500000 0.000000 -0.964286
v -1.500000 0.250000 -0.964286
v 1.250000 0.000000 -1.214286
v 1.250000 0.250000 -1.214286
v -1.250000 0.000000 -1.214286
v -1.250000 0.250000 -1.214286
v 1.500000 0.000000 -1.214286
v 1.500000 0.250000 -1.214286
v -1.500000 0.000000 -1.214286
v -1.500000 0.250000 -1.214286
v -0.500000 0.000000 0.464286
v -0.500000 0.000000 0.214286
v 0.500000 0.000000 0.214286
v 0.500000 0.000000 0.464286
v -0.500000 0.250000 0.464286
v -0.500000 0.250000 0.214286
v 0.500000 0.250000 0.214286
v 0.500000 0.250000 0.464286
v -0.750000 0.000000 0.464286
v -0.750000 0.000000 0.214286
v -0.750000 0.250000 0.464286
v -0.750000 0.250000 0.214286
v 0.750000 0.000000 0.214286
v 0.750000 0.000000 0.464286
v 0.750000 0.250000 0.214286
v 0.750000 0.250000 0.464286
v -0.500000 0.000000 0.714286
v -0.500000 0.250000 0.714286
v 0.500000 0.000000 0.714286
v 0.500000 0.250000 0.714286
v -0.750000 0.000000 0.714286
v -0.750000 0.250000 0.714286
v 0.750000 0.000000 0.714286
v 0.750000 0.250000 0.714286
v -0.500000 0.000000 0.964286
v -0.500000 0.250000 0.964286
v 0.500000 0.000000 0.964286
v 0.500000 0.250000 0.964286
v -0.750000 0.000000 0.964286
v -0.750000 0.250000 0.964286
v 0.750000 0.000000 0.964286
v 0.750000 0.250000 0.964286
v -1.250000 0.000000 0.714286
v -1.250000 0.250000 0.714286
v 1.250000 0.000000 0.714286
v 1.250000 0.250000 0.714286
v -1.250000 0.000000 0.964286
v -1.250000 0.250000 0.964286
v 1.250000 0.000000 0.964286
v 1.250000 0.250000 0.964286
v -1.500000 0.000000 0.714286
v -1.500000 0.250000 0.714286
v 1.500000 0.000000 0.714286
v 1.500000 0.250000 0.714286
v -1.500000 0.000000 0.964286
v -1.500000 0.250000 0.964286
v 1.500000 0.000000 0.964286
v 1.500000 0.250000 0.964286
v -1.250000 0.000000 1.214286
v -1.250000 0.250000 1.214286
v 1.250000 0.000000 1.214286
v 1.250000 0.250000 1.214286
v -1.500000 0.000000 1.214286
v -1.500000 0.250000 1.214286
v 1.500000 0.000000 1.214286
v 1.500000 0.250000 1.214286
vn 0.0000 1.0000 0.0000
vn -0.0000 -0.0000 1.0000
vn 1.0000 -0.0000 0.0000
vn 0.0000 0.0000 -1.0000
vn -1.0000 -0.0000 -0.0000
usemtl Material
s off
f 5//1 8//1 7//1 6//1
f 7//1 8//1 16//1 15//1
f 2//2 6//2 7//2 3//2
f 11//3 9//3 21//3 22//3
f 5//4 1//4 4//4 8//4
f 9//3 11//3 12//3 10//3
f 13//5 15//5 16//5 14//5
f 1//5 5//5 18//5 17//5
f 5//1 6//1 12//1 11//1
f 3//2 7//2 15//2 13//2
f 6//2 2//2 10//2 12//2
f 16//1 8//1 20//1 24//1
f 5//1 11//1 22//1 18//1
f 8//3 4//3 19//3 20//3
f 14//5 16//5 24//5 23//5
f 25//4 26//4 30//4 29//4
f 28//4 27//4 31//4 32//4
f 20//3 19//3 27//3 28//3
f 24//1 20//1 28//1 32//1
f 18//1 22//1 30//1 26//1
f 29//4 30//4 38//4 37//4
f 17//5 18//5 26//5 25//5
f 36//1 40//1 48//1 44//1
f 23//2 24//2 36//2 35//2
f 30//1 22//1 34//1 38//1
f 32//4 31//4 39//4 40//4
f 24//1 32//1 40//1 36//1
f 22//2 21//2 33//2 34//2
f 43//5 44//5 48//5 47//5
f 42//3 41//3 45//3 46//3
f 38//1 46//1 54//1 50//1
f 34//2 33//2 41//2 42//2
f 38//1 34//1 42//1 46//1
f 47//5 48//5 56//5 55//5
f 35//2 36//2 44//2 43//2
f 49//4 50//4 54//4 53//4
f 52//4 51//4 55//4 56//4
f 48//1 40//1 52//1 56//1
f 37//5 38//5 50//5 49//5
f 46//3 45//3 53//3 54//3
f 40//3 39//3 51//3 52//3
f 61//1 64//1 63//1 62//1
f 63//1 64//1 72//1 71//1
f 58//4 62//4 63//4 59//4
f 67//5 65//5 77//5 78//5
f 61//2 57//2 60//2 64//2
f 65//5 67//5 68//5 66//5
f 69//3 71//3 72//3 70//3
f 57//3 61//3 74//3 73//3
f 61//1 62//1 68//1 67//1
f 59//4 63//4 71//4 69//4
f 62//4 58//4 66//4 68//4
f 72//1 64//1 76//1 80//1
f 61//1 67//1 78//1 74//1
f 64//5 60//5 75//5 76//5
f 70//3 72//3 80//3 79//3
f 81//2 82//2 86//2 85//2
f 84//2 83//2 87//2 88//2
f 76//5 75//5 83//5 84//5
f 80//1 76//1 84//1 88//1
f 74//1 78//1 86//1 82//1
f 85//2 86//2 94//2 93//2
f 73//3 74//3 82//3 81//3
f 92//1 96//1 104//1 100//1
f 79//4 80//4 92//4 91//4
f 86//1 78//1 90//1 94//1
f 88//2 87//2 95//2 96//2
f 80//1 88//1 96//1 92//1
f 78//4 77//4 89//4 90//4
f 99//3 100//3 104//3 103//3
f 98//5 97//5 101//5 102//5
f 94//1 102//1 110//1 106//1
f 90//4 89//4 97//4 98//4
f 94//1 90//1 98//1 102//1
f 103//3 104//3 112//3 111//3
f 91//4 92//4 100//4 99//4
f 105//2 106//2 110//2 109//2
f 108//2 107//2 111//2 112//2
f 104//1 96//1 108//1 112//1
f 93//3 94//3 106//3 105//3
f 102//5 101//5 109//5 110//5
f 96//5 95//5 107//5 108//5
