# Blender v2.79 (sub 0) OBJ File: 'plan_voisin_garden_1.blend'
# www.blender.org
mtllib plan_voisin_garden_1.mtl
o Cube
v 0.750000 0.000000 -1.750000
v 0.750000 0.000000 1.750000
v -0.750000 0.000000 1.750000
v -0.750000 0.000000 -1.750001
v 0.750000 1.000000 -1.749999
v 0.749999 1.000000 1.750001
v -0.750000 1.000000 1.750000
v -0.750000 1.000000 -1.750000
v 1.000000 0.000000 -2.000000
v 1.000000 0.000000 2.000000
v -1.000000 0.000000 -2.000001
v -1.000000 0.000000 2.000000
v 1.000000 1.000000 -1.999999
v 0.999999 1.000000 2.000001
v -1.000000 1.000000 -2.000000
v -1.000000 1.000000 1.999999
vn 0.0000 0.0000 -1.0000
vn -1.0000 -0.0000 -0.0000
vn 1.0000 0.0000 0.0000
vn -0.0000 -0.0000 1.0000
vn 0.0000 1.0000 0.0000
usemtl Material
s off
f 3//1 7//1 6//1 2//1
f 2//2 6//2 5//2 1//2
f 9//3 13//3 14//3 10//3
f 10//4 14//4 16//4 12//4
f 12//2 16//2 15//2 11//2
f 13//1 9//1 11//1 15//1
f 5//5 6//5 14//5 13//5
f 8//5 5//5 13//5 15//5
f 6//5 7//5 16//5 14//5
f 7//5 8//5 15//5 16//5
f 4//3 8//3 7//3 3//3
f 4//4 1//4 5//4 8//4
